<svg width="256" height="256" viewBox="0 0 256 256" fill="none" xmlns="http://www.w3.org/2000/svg">
  <rect width="256" height="256" rx="56" fill="#1877F2"/>
  <rect x="38" y="38" width="180" height="180" rx="40" fill="#E7F3FF"/>
  <path d="M95 82H162C177.464 82 190 94.536 190 110V145C190 160.464 177.464 173 162 173H95C79.536 173 67 160.464 67 145V110C67 94.536 79.536 82 95 82Z" fill="#1877F2"/>
  <path d="M103 125C103 111.193 114.193 100 128 100C141.807 100 153 111.193 153 125C153 138.807 141.807 150 128 150C114.193 150 103 138.807 103 125Z" fill="white"/>
  <path d="M124 93H132V157H124V93Z" fill="white"/>
</svg>
