<svg width="1200" height="630" viewBox="0 0 1200 630" fill="none" xmlns="http://www.w3.org/2000/svg">
  <rect width="1200" height="630" fill="#F0F2F5"/>
  <rect x="56" y="56" width="1088" height="518" rx="36" fill="white"/>
  <rect x="88" y="88" width="280" height="454" rx="28" fill="#F7FAFF" stroke="#DCE1E7"/>
  <rect x="400" y="88" width="712" height="454" rx="28" fill="#FFFFFF" stroke="#DCE1E7"/>
  <rect x="88" y="88" width="1024" height="72" rx="24" fill="#E7F3FF"/>
  <circle cx="128" cy="124" r="18" fill="#1877F2"/>
  <rect x="160" y="108" width="180" height="32" rx="16" fill="#1877F2"/>
  <rect x="106" y="198" width="244" height="118" rx="22" fill="white" stroke="#DCE1E7"/>
  <rect x="106" y="336" width="244" height="166" rx="22" fill="white" stroke="#DCE1E7"/>
  <rect x="430" y="198" width="652" height="38" rx="19" fill="#1C1E21"/>
  <rect x="430" y="258" width="356" height="18" rx="9" fill="#65676B"/>
  <rect x="430" y="296" width="314" height="18" rx="9" fill="#65676B"/>
  <rect x="430" y="364" width="620" height="64" rx="24" fill="#F7FAFF" stroke="#DCE1E7"/>
  <rect x="430" y="444" width="620" height="64" rx="24" fill="#F7FAFF" stroke="#DCE1E7"/>
  <rect x="468" y="386" width="132" height="22" rx="11" fill="#1877F2"/>
  <rect x="468" y="466" width="132" height="22" rx="11" fill="#1877F2"/>
  <text x="430" y="176" fill="#1877F2" font-family="Arial, Helvetica, sans-serif" font-size="24" font-weight="700">
    ODEE
  </text>
  <text x="430" y="248" fill="#1C1E21" font-family="Arial, Helvetica, sans-serif" font-size="56" font-weight="700">
    Multi-Tenant Isolation
  </text>
  <text x="430" y="332" fill="#65676B" font-family="Arial, Helvetica, sans-serif" font-size="28">
    Supabase RLS, tenant-safe students, API isolation, and production-ready architecture.
  </text>
</svg>
